<svg width="48" height="48" viewBox="0 0 48 48" fill="none" xmlns="http://www.w3.org/2000/svg" data-v-f6964b8b=""><path d="M36.3915 17.6081C37.9454 18.4562 38.9996 20.105 38.9996 22C38.9996 24.7614 36.761 27 33.9996 27C32.1046 27 30.4559 25.9458 29.6078 24.3919M36.3915 17.6081L41.9996 12L31.9996 12L27.9996 7.99999C25.7905 5.79085 22.2088 5.79086 19.9996 7.99999C17.7905 10.2091 17.7905 13.7909 19.9996 16L23.9996 20L23.9996 30L29.6078 24.3919M36.3915 17.6081L29.6078 24.3919M17.999 41.9994L13.999 23.9994L20.999 16.9994M5.99902 41.9994L29.999 41.9994" stroke="#C1C1C1" stroke-width="2" stroke-linecap="round" stroke-linejoin="round"></path></svg>