<svg width="48" height="48" viewBox="0 0 48 48" fill="none" xmlns="http://www.w3.org/2000/svg" data-v-f6964b8b=""><path d="M6.25 18H41.75M24 6L16 18L24 41.3333L32 18L24 6ZM25.28 40.2933L41.28 18.96C41.5382 18.6157 41.6673 18.4436 41.7171 18.2546C41.761 18.0877 41.761 17.9123 41.7171 17.7454C41.6673 17.5564 41.5382 17.3843 41.28 17.04L33.48 6.64C33.304 6.40533 33.216 6.288 33.1045 6.20338C33.0057 6.12842 32.8938 6.0725 32.7746 6.03845C32.64 6 32.4933 6 32.2 6H15.8C15.5067 6 15.36 6 15.2254 6.03845C15.1062 6.0725 14.9943 6.12842 14.8955 6.20338C14.784 6.288 14.696 6.40533 14.52 6.64L6.72 17.04C6.46181 17.3843 6.33271 17.5564 6.28295 17.7454C6.23902 17.9123 6.23902 18.0877 6.28294 18.2546C6.33271 18.4436 6.46181 18.6157 6.72 18.96L22.72 40.2933C23.1542 40.8723 23.3714 41.1618 23.6375 41.2653C23.8707 41.356 24.1293 41.356 24.3625 41.2653C24.6286 41.1618 24.8458 40.8723 25.28 40.2933Z" stroke="#C1C1C1" stroke-width="2" stroke-linecap="round" stroke-linejoin="round"></path></svg>