<svg width="48" height="48" viewBox="0 0 48 48" fill="none" xmlns="http://www.w3.org/2000/svg" data-v-f6964b8b=""><path d="M29.9996 27V18M29.9996 18H20.9996M29.9996 18L18 29.9999M14.4 40H33.6C35.8402 40 36.9603 40 37.816 39.564C38.5686 39.1805 39.1805 38.5686 39.564 37.816C40 36.9603 40 35.8402 40 33.6V14.4C40 12.1598 40 11.0397 39.564 10.184C39.1805 9.43139 38.5686 8.81947 37.816 8.43597C36.9603 8 35.8402 8 33.6 8H14.4C12.1598 8 11.0397 8 10.184 8.43597C9.43139 8.81947 8.81947 9.43139 8.43597 10.184C8 11.0397 8 12.1598 8 14.4V33.6C8 35.8402 8 36.9603 8.43597 37.816C8.81947 38.5686 9.43139 39.1805 10.184 39.564C11.0397 40 12.1598 40 14.4 40Z" stroke="#C1C1C1" stroke-width="2" stroke-linecap="round" stroke-linejoin="round"></path></svg>